<svg xmlns="http://www.w3.org/2000/svg" xmlns:xlink="http://www.w3.org/1999/xlink" contentStyleType="text/css" data-diagram-type="DESCRIPTION" height="661px" preserveAspectRatio="none" style="width:1044px;height:661px;background:#FFFFFF;" version="1.1" viewBox="0 0 1044 661" width="1044px" zoomAndPan="magnify"><defs/><g><!--cluster Node.js App--><g class="cluster" data-entity="Node.js App" data-source-line="6" data-uid="ent0003" id="cluster_Node.js App"><path d="M13.5,151.01 L109.2871,151.01 A3.75,3.75 0 0 1 111.7871,153.51 L118.7871,174.0246 L1034.5,174.0246 A2.5,2.5 0 0 1 1037,176.5246 L1037,465.56 A2.5,2.5 0 0 1 1034.5,468.06 L13.5,468.06 A2.5,2.5 0 0 1 11,465.56 L11,153.51 A2.5,2.5 0 0 1 13.5,151.01" fill="#FFFFFF" style="stroke:#000000;stroke-width:1;"/><line style="stroke:#000000;stroke-width:1;" x1="11" x2="118.7871" y1="174.0246" y2="174.0246"/><text fill="#000000" font-family="Verdana" font-size="14" font-weight="bold" lengthAdjust="spacing" textLength="94.7871" x="15" y="167.0852">Node.js App</text></g><!--cluster Cosmos--><g class="cluster" data-entity="Cosmos" data-source-line="14" data-uid="ent0009" id="cluster_Cosmos"><polygon fill="#FFFFFF" points="468,535.06,478,525.06,929,525.06,929,634.07,919,644.07,468,644.07,468,535.06" style="stroke:#000000;stroke-width:1;"/><line style="stroke:#000000;stroke-width:1;" x1="919" x2="929" y1="535.06" y2="525.06"/><line style="stroke:#000000;stroke-width:1;" x1="468" x2="919" y1="535.06" y2="535.06"/><line style="stroke:#000000;stroke-width:1;" x1="919" x2="919" y1="535.06" y2="644.07"/><text fill="#000000" font-family="Verdana" font-size="14" font-weight="bold" lengthAdjust="spacing" textLength="138.0859" x="625.457" y="552.1352">Azure Cosmos DB</text></g><!--entity CLI--><g class="entity" data-entity="CLI" data-source-line="7" data-uid="ent0004" id="entity_CLI"><rect fill="#FFFFFF" height="37.0146" rx="2.5" ry="2.5" style="stroke:#000000;stroke-width:1;" width="120.8984" x="389.55" y="187.01"/><text fill="#000000" font-family="Verdana" font-size="14" lengthAdjust="spacing" textLength="100.8984" x="399.55" y="211.0852">CLI (src/cli.ts)</text></g><!--entity App--><g class="entity" data-entity="App" data-source-line="8" data-uid="ent0005" id="entity_App"><rect fill="#FFFFFF" height="37.0146" rx="2.5" ry="2.5" style="stroke:#000000;stroke-width:1;" width="193.2842" x="353.36" y="301.03"/><text fill="#000000" font-family="Verdana" font-size="14" lengthAdjust="spacing" textLength="173.2842" x="363.36" y="325.1052">App Helpers (src/app.ts)</text></g><!--entity Config--><g class="entity" data-entity="Config" data-source-line="9" data-uid="ent0006" id="entity_Config"><rect fill="#FFFFFF" height="37.0146" rx="2.5" ry="2.5" style="stroke:#000000;stroke-width:1;" width="221.8721" x="27.06" y="415.04"/><text fill="#000000" font-family="Verdana" font-size="14" lengthAdjust="spacing" textLength="201.8721" x="37.06" y="439.1152">Config Loader (src/config.ts)</text></g><!--entity ClientFactory--><g class="entity" data-entity="ClientFactory" data-source-line="10" data-uid="ent0007" id="entity_ClientFactory"><rect fill="#FFFFFF" height="37.0146" rx="2.5" ry="2.5" style="stroke:#000000;stroke-width:1;" width="332.1426" x="283.93" y="415.04"/><text fill="#000000" font-family="Verdana" font-size="14" lengthAdjust="spacing" textLength="312.1426" x="293.93" y="439.1152">Cosmos Client Factory (src/cosmosClient.ts)</text></g><!--entity Repo--><g class="entity" data-entity="Repo" data-source-line="11" data-uid="ent0008" id="entity_Repo"><rect fill="#FFFFFF" height="37.0146" rx="2.5" ry="2.5" style="stroke:#000000;stroke-width:1;" width="370.0547" x="650.97" y="415.04"/><text fill="#000000" font-family="Verdana" font-size="14" lengthAdjust="spacing" textLength="350.0547" x="660.97" y="439.1152">Customer Repository (src/customerRepository.ts)</text></g><!--entity Db--><g class="entity" data-entity="Db" data-source-line="15" data-uid="ent0010" id="entity_Db"><path d="M511.82,584.06 C511.82,574.06 604.9997,574.06 604.9997,574.06 C604.9997,574.06 698.1794,574.06 698.1794,584.06 L698.1794,610.0746 C698.1794,620.0746 604.9997,620.0746 604.9997,620.0746 C604.9997,620.0746 511.82,620.0746 511.82,610.0746 L511.82,584.06" fill="#FFFFFF" style="stroke:#000000;stroke-width:1;"/><path d="M511.82,584.06 C511.82,594.06 604.9997,594.06 604.9997,594.06 C604.9997,594.06 698.1794,594.06 698.1794,584.06" fill="none" style="stroke:#000000;stroke-width:1;"/><text fill="#000000" font-family="Verdana" font-size="14" lengthAdjust="spacing" textLength="166.3594" x="521.82" y="612.1352">Database: customer-db</text></g><!--entity Container--><g class="entity" data-entity="Container" data-source-line="16" data-uid="ent0011" id="entity_Container"><rect fill="#FFFFFF" height="33.0146" rx="2.5" ry="2.5" style="stroke:#000000;stroke-width:1;" width="168.0381" x="736.98" y="582.56"/><rect fill="#FFFFFF" height="33.0146" rx="2.5" ry="2.5" style="stroke:#000000;stroke-width:1;" width="168.0381" x="732.98" y="578.56"/><text fill="#000000" font-family="Verdana" font-size="14" lengthAdjust="spacing" textLength="152.0381" x="740.98" y="600.6352">Container: customers</text></g><!--entity User--><g class="entity" data-entity="User" data-source-line="4" data-uid="ent0002" id="entity_User"><ellipse cx="449.9977" cy="19" fill="#FFFFFF" rx="8" ry="8" style="stroke:#000000;stroke-width:1;"/><path d="M449.9977,27 L449.9977,54 M436.9977,35 L462.9977,35 M449.9977,54 L436.9977,69 M449.9977,54 L462.9977,69" fill="none" style="stroke:#000000;stroke-width:1;"/><text fill="#000000" font-family="Verdana" font-size="14" lengthAdjust="spacing" textLength="31.8555" x="434.07" y="85.0752">User</text></g><!--link User to CLI--><g class="link" data-entity-1="User" data-entity-2="CLI" data-source-line="19" data-uid="lnk12" id="link_User_CLI"><path d="M450,88.2 C450,119.66 450,156.84 450,180.76" fill="none" id="User-to-CLI" style="stroke:#000000;stroke-width:1;"/><polygon fill="#000000" points="450,186.76,454,177.76,450,181.76,446,177.76,450,186.76" style="stroke:#000000;stroke-width:1;"/><text fill="#000000" font-family="Verdana" font-size="13" lengthAdjust="spacing" textLength="22.001" x="451" y="132.0798">run</text></g><!--link CLI to App--><g class="link" data-entity-1="CLI" data-entity-2="App" data-source-line="20" data-uid="lnk13" id="link_CLI_App"><path d="M450,224.52 C450,245.42 450,273.7 450,294.58" fill="none" id="CLI-to-App" style="stroke:#000000;stroke-width:1;"/><polygon fill="#000000" points="450,300.58,454,291.58,450,295.58,446,291.58,450,300.58" style="stroke:#000000;stroke-width:1;"/><text fill="#000000" font-family="Verdana" font-size="13" lengthAdjust="spacing" textLength="156.6602" x="451" y="268.0998">storeSampleCustomer()</text></g><!--link App to Config--><g class="link" data-entity-1="App" data-entity-2="Config" data-source-line="21" data-uid="lnk14" id="link_App_Config"><path d="M395.27,338.47 C369.09,347.18 337.34,357.92 309,368.04 C266.57,383.19 224.1899,399.2256 189.8799,412.4256" fill="none" id="App-to-Config" style="stroke:#000000;stroke-width:1;"/><polygon fill="#000000" points="184.28,414.58,194.1161,415.0816,188.9466,412.7846,191.2435,407.6151,184.28,414.58" style="stroke:#000000;stroke-width:1;"/><text fill="#000000" font-family="Verdana" font-size="13" lengthAdjust="spacing" textLength="131.6504" x="310" y="382.1098">loadCosmosConfig()</text></g><!--link App to ClientFactory--><g class="link" data-entity-1="App" data-entity-2="ClientFactory" data-source-line="22" data-uid="lnk15" id="link_App_ClientFactory"><path d="M450,338.53 C450,359.43 450,387.71 450,408.6" fill="none" id="App-to-ClientFactory" style="stroke:#000000;stroke-width:1;"/><polygon fill="#000000" points="450,414.6,454,405.6,450,409.6,446,405.6,450,414.6" style="stroke:#000000;stroke-width:1;"/><text fill="#000000" font-family="Verdana" font-size="13" lengthAdjust="spacing" textLength="154.8828" x="451" y="382.1098">createContainer(config)</text></g><!--link ClientFactory to Cosmos--><g class="link" data-entity-1="ClientFactory" data-entity-2="Cosmos" data-source-line="23" data-uid="lnk16" id="link_ClientFactory_Cosmos"><path d="M452.88,452.45 C456.215,473.15 461.8675,508.2625 466.7488,538.5863 C467.0538,540.4815 467.3559,542.358 467.6542,544.2111 C467.7288,544.6744 467.8031,545.1363 467.8772,545.5965 C467.9142,545.8267 466.9977,540.1327 467.0346,540.3621" fill="none" id="ClientFactory-to-Cosmos" style="stroke:#000000;stroke-width:1;"/><polygon fill="#000000" points="467.9881,546.2858,470.507,536.7645,467.1935,541.3494,462.6087,538.0359,467.9881,546.2858" style="stroke:#000000;stroke-width:1;"/><text fill="#000000" font-family="Verdana" font-size="13" lengthAdjust="spacing" textLength="50.7559" x="461.67" y="498.1298">connect</text></g><!--link App to Repo--><g class="link" data-entity-1="App" data-entity-2="Repo" data-source-line="24" data-uid="lnk17" id="link_App_Repo"><path d="M511.92,338.46 C542.62,347.35 580.26,358.25 614,368.04 C668.16,383.75 723.9786,399.9749 768.5186,412.9249" fill="none" id="App-to-Repo" style="stroke:#000000;stroke-width:1;"/><polygon fill="#000000" points="774.28,414.6,766.7546,408.2464,769.4788,413.2041,764.5211,415.9282,774.28,414.6" style="stroke:#000000;stroke-width:1;"/><text fill="#000000" font-family="Verdana" font-size="13" lengthAdjust="spacing" textLength="236.2852" x="669.82" y="382.1098">new CustomerRepository(container)</text></g><!--link Repo to Container--><g class="link" data-entity-1="Repo" data-entity-2="Container" data-source-line="25" data-uid="lnk18" id="link_Repo_Container"><path d="M834.12,452.45 C830.85,483.5 824.7993,541.0131 821.5193,572.1131" fill="none" id="Repo-to-Container" style="stroke:#000000;stroke-width:1;"/><polygon fill="#000000" points="820.89,578.08,825.8119,569.5492,821.4144,573.1076,817.856,568.7101,820.89,578.08" style="stroke:#000000;stroke-width:1;"/><text fill="#000000" font-family="Verdana" font-size="13" lengthAdjust="spacing" textLength="110.8872" x="831.5" y="498.1298">CRUD operations</text></g><!--SRC=[PLBBJiCm4BpxAvQScaFBFGUaqWY1L75erHFYi7MM4khObkqA5SI_ituqAU9cpyvCPiUv2Uyq45Y5lHR-s6kB3WUGPh16amxRS5O4ZcH0VL0a1CfW75GxJwu2z10FGbYKHpmGLC-ceyM7XwMr5NmBW9VL-WbctibRgVf5yFLhL34OPyo2HrAMdCySj7Ray33fZNxh3x0ss94hJWcQpD8rS_rW650zHuU7bFLyqSHHdapAT2syP73omGpydGrPu_ihUHbC-6WI8V4ZXERLeLf-dHn12TBULpbWkiKwEWouHy_4jfmQk7ZFktsYjticIgCKjzuRxQ7Y3GC_4Bc9x8jp6SG0yIbWFh-BxK83xgH5F4Ka5jq0AnrjSR2ABelEQX5dIPMBRa1nrJboXguvruKnLJh2G6EAMNwPMlpbPVVK0KkCrhpOQ1dhOrZJ9wp-bHmDitKj4h44pHZBLfjT2uP_84nLYLy0]--></g></svg>