<svg xmlns="http://www.w3.org/2000/svg" xmlns:xlink="http://www.w3.org/1999/xlink" contentStyleType="text/css" data-diagram-type="SEQUENCE" height="1744px" preserveAspectRatio="none" style="width:1256px;height:1744px;background:#FFFFFF;" version="1.1" viewBox="0 0 1256 1744" width="1256px" zoomAndPan="magnify"><defs/><g><g><title>Caller</title><rect fill="#000000" fill-opacity="0.00000" height="1579.9658" width="8" x="29.0908" y="83.0146"/><line style="stroke:#000000;stroke-width:1;stroke-dasharray:5,5;" x1="33" x2="33" y1="83.0146" y2="1662.9805"/></g><g><title>App Helpers</title><rect fill="#000000" fill-opacity="0.00000" height="1579.9658" width="8" x="273.7988" y="83.0146"/><line style="stroke:#000000;stroke-width:1;stroke-dasharray:5,5;" x1="277.3135" x2="277.3135" y1="83.0146" y2="1662.9805"/></g><g><title>Config Loader</title><rect fill="#000000" fill-opacity="0.00000" height="1579.9658" width="8" x="453.1133" y="83.0146"/><line style="stroke:#000000;stroke-width:1;stroke-dasharray:5,5;" x1="456.2759" x2="456.2759" y1="83.0146" y2="1662.9805"/></g><g><title>Cosmos Client</title><rect fill="#000000" fill-opacity="0.00000" height="1579.9658" width="8" x="622.0537" y="83.0146"/><line style="stroke:#000000;stroke-width:1;stroke-dasharray:5,5;" x1="625.9507" x2="625.9507" y1="83.0146" y2="1662.9805"/></g><g><title>Customer Repository</title><rect fill="#000000" fill-opacity="0.00000" height="1579.9658" width="8" x="839.9736" y="83.0146"/><line style="stroke:#000000;stroke-width:1;stroke-dasharray:5,5;" x1="843.1567" x2="843.1567" y1="83.0146" y2="1662.9805"/></g><g><title>Cosmos DB Container</title><rect fill="#000000" fill-opacity="0.00000" height="1579.9658" width="8" x="1146.6982" y="83.0146"/><line style="stroke:#000000;stroke-width:1;stroke-dasharray:5,5;" x1="1150.0605" x2="1150.0605" y1="83.0146" y2="1662.9805"/></g><g class="participant participant-head" data-participant="Caller"><text fill="#000000" font-family="Verdana" font-size="14" lengthAdjust="spacing" textLength="40.1816" x="10" y="80.0752">Caller</text><ellipse cx="33.0908" cy="14" fill="#FFFFFF" rx="8" ry="8" style="stroke:#000000;stroke-width:1;"/><path d="M33.0908,22 L33.0908,49 M20.0908,30 L46.0908,30 M33.0908,49 L20.0908,64 M33.0908,49 L46.0908,64" fill="none" style="stroke:#000000;stroke-width:1;"/></g><g class="participant participant-tail" data-participant="Caller"><text fill="#000000" font-family="Verdana" font-size="14" lengthAdjust="spacing" textLength="40.1816" x="10" y="1676.0557">Caller</text><ellipse cx="33.0908" cy="1687.9951" fill="#FFFFFF" rx="8" ry="8" style="stroke:#000000;stroke-width:1;"/><path d="M33.0908,1695.9951 L33.0908,1722.9951 M20.0908,1703.9951 L46.0908,1703.9951 M33.0908,1722.9951 L20.0908,1737.9951 M33.0908,1722.9951 L46.0908,1737.9951" fill="none" style="stroke:#000000;stroke-width:1;"/></g><g class="participant participant-head" data-participant="App"><rect fill="#FFFFFF" height="48.0293" rx="2.5" ry="2.5" style="stroke:#000000;stroke-width:1;" width="98.9707" x="228.3135" y="33.9854"/><text fill="#000000" font-family="Verdana" font-size="14" lengthAdjust="spacing" textLength="84.9707" x="235.3135" y="55.0605">App Helpers</text><text fill="#000000" font-family="Verdana" font-size="14" lengthAdjust="spacing" textLength="83.3916" x="236.103" y="72.0752">(src/app.ts)</text></g><g class="participant participant-tail" data-participant="App"><rect fill="#FFFFFF" height="48.0293" rx="2.5" ry="2.5" style="stroke:#000000;stroke-width:1;" width="98.9707" x="228.3135" y="1661.9805"/><text fill="#000000" font-family="Verdana" font-size="14" lengthAdjust="spacing" textLength="84.9707" x="235.3135" y="1683.0557">App Helpers</text><text fill="#000000" font-family="Verdana" font-size="14" lengthAdjust="spacing" textLength="83.3916" x="236.103" y="1700.0703">(src/app.ts)</text></g><g class="participant participant-head" data-participant="Config"><rect fill="#FFFFFF" height="48.0293" rx="2.5" ry="2.5" style="stroke:#000000;stroke-width:1;" width="113.6748" x="400.2759" y="33.9854"/><text fill="#000000" font-family="Verdana" font-size="14" lengthAdjust="spacing" textLength="97.2754" x="408.4756" y="55.0605">Config Loader</text><text fill="#000000" font-family="Verdana" font-size="14" lengthAdjust="spacing" textLength="99.6748" x="407.2759" y="72.0752">(src/config.ts)</text></g><g class="participant participant-tail" data-participant="Config"><rect fill="#FFFFFF" height="48.0293" rx="2.5" ry="2.5" style="stroke:#000000;stroke-width:1;" width="113.6748" x="400.2759" y="1661.9805"/><text fill="#000000" font-family="Verdana" font-size="14" lengthAdjust="spacing" textLength="97.2754" x="408.4756" y="1683.0557">Config Loader</text><text fill="#000000" font-family="Verdana" font-size="14" lengthAdjust="spacing" textLength="99.6748" x="407.2759" y="1700.0703">(src/config.ts)</text></g><g class="participant participant-head" data-participant="ClientFactory"><rect fill="#FFFFFF" height="48.0293" rx="2.5" ry="2.5" style="stroke:#000000;stroke-width:1;" width="164.2061" x="543.9507" y="33.9854"/><text fill="#000000" font-family="Verdana" font-size="14" lengthAdjust="spacing" textLength="100.0713" x="576.0181" y="55.0605">Cosmos Client</text><text fill="#000000" font-family="Verdana" font-size="14" lengthAdjust="spacing" textLength="150.2061" x="550.9507" y="72.0752">(src/cosmosClient.ts)</text></g><g class="participant participant-tail" data-participant="ClientFactory"><rect fill="#FFFFFF" height="48.0293" rx="2.5" ry="2.5" style="stroke:#000000;stroke-width:1;" width="164.2061" x="543.9507" y="1661.9805"/><text fill="#000000" font-family="Verdana" font-size="14" lengthAdjust="spacing" textLength="100.0713" x="576.0181" y="1683.0557">Cosmos Client</text><text fill="#000000" font-family="Verdana" font-size="14" lengthAdjust="spacing" textLength="150.2061" x="550.9507" y="1700.0703">(src/cosmosClient.ts)</text></g><g class="participant participant-head" data-participant="Repo"><rect fill="#FFFFFF" height="48.0293" rx="2.5" ry="2.5" style="stroke:#000000;stroke-width:1;" width="211.6338" x="738.1567" y="33.9854"/><text fill="#000000" font-family="Verdana" font-size="14" lengthAdjust="spacing" textLength="147.499" x="770.2241" y="55.0605">Customer Repository</text><text fill="#000000" font-family="Verdana" font-size="14" lengthAdjust="spacing" textLength="197.6338" x="745.1567" y="72.0752">(src/customerRepository.ts)</text></g><g class="participant participant-tail" data-participant="Repo"><rect fill="#FFFFFF" height="48.0293" rx="2.5" ry="2.5" style="stroke:#000000;stroke-width:1;" width="211.6338" x="738.1567" y="1661.9805"/><text fill="#000000" font-family="Verdana" font-size="14" lengthAdjust="spacing" textLength="147.499" x="770.2241" y="1683.0557">Customer Repository</text><text fill="#000000" font-family="Verdana" font-size="14" lengthAdjust="spacing" textLength="197.6338" x="745.1567" y="1700.0703">(src/customerRepository.ts)</text></g><g class="participant participant-head" data-participant="Container"><rect fill="#FFFFFF" height="31.0146" rx="2.5" ry="2.5" style="stroke:#000000;stroke-width:1;" width="167.2754" x="1067.0605" y="51"/><text fill="#000000" font-family="Verdana" font-size="14" lengthAdjust="spacing" textLength="153.2754" x="1074.0605" y="72.0752">Cosmos DB Container</text></g><g class="participant participant-tail" data-participant="Container"><rect fill="#FFFFFF" height="31.0146" rx="2.5" ry="2.5" style="stroke:#000000;stroke-width:1;" width="167.2754" x="1067.0605" y="1661.9805"/><text fill="#000000" font-family="Verdana" font-size="14" lengthAdjust="spacing" textLength="153.2754" x="1074.0605" y="1683.0557">Cosmos DB Container</text></g><rect fill="#FFFFFF" height="3" style="stroke:#FFFFFF;stroke-width:1;" width="1244.3359" x="5" y="113.9143"/><line style="stroke:#000000;stroke-width:0.5;" x1="5" x2="1249.3359" y1="113.9143" y2="113.9143"/><line style="stroke:#000000;stroke-width:0.5;" x1="5" x2="1249.3359" y1="116.9143" y2="116.9143"/><rect fill="#FFFFFF" height="23.7993" style="stroke:#000000;stroke-width:1;" width="140.7056" x="556.8152" y="103.0146"/><text fill="#000000" font-family="Verdana" font-size="13" font-weight="bold" lengthAdjust="spacing" textLength="122.2622" x="562.8152" y="120.0845">Create Customer</text><g class="message" data-participant-1="Caller" data-participant-2="App"><polygon fill="#000000" points="265.7988,154.6133,275.7988,158.6133,265.7988,162.6133,269.7988,158.6133" style="stroke:#000000;stroke-width:1;"/><line style="stroke:#000000;stroke-width:1;" x1="33.0908" x2="271.7988" y1="158.6133" y2="158.6133"/><text fill="#000000" font-family="Verdana" font-size="13" lengthAdjust="spacing" textLength="216.3472" x="40.0908" y="153.8838">createCustomer(customer, env?)</text></g><g class="message" data-participant-1="App" data-participant-2="Config"><polygon fill="#000000" points="445.1133,184.4126,455.1133,188.4126,445.1133,192.4126,449.1133,188.4126" style="stroke:#000000;stroke-width:1;"/><line style="stroke:#000000;stroke-width:1;" x1="277.7988" x2="451.1133" y1="188.4126" y2="188.4126"/><text fill="#000000" font-family="Verdana" font-size="13" lengthAdjust="spacing" textLength="155.3145" x="284.7988" y="183.6831">loadCosmosConfig(env)</text></g><g class="message" data-participant-1="App" data-participant-2="ClientFactory"><polygon fill="#000000" points="614.0537,214.2119,624.0537,218.2119,614.0537,222.2119,618.0537,218.2119" style="stroke:#000000;stroke-width:1;"/><line style="stroke:#000000;stroke-width:1;" x1="277.7988" x2="620.0537" y1="218.2119" y2="218.2119"/><text fill="#000000" font-family="Verdana" font-size="13" lengthAdjust="spacing" textLength="154.8828" x="284.7988" y="213.4824">createContainer(config)</text></g><g class="message" data-participant-1="App" data-participant-2="Repo"><polygon fill="#000000" points="831.9736,244.0112,841.9736,248.0112,831.9736,252.0112,835.9736,248.0112" style="stroke:#000000;stroke-width:1;"/><line style="stroke:#000000;stroke-width:1;" x1="277.7988" x2="837.9736" y1="248.0112" y2="248.0112"/><text fill="#000000" font-family="Verdana" font-size="13" lengthAdjust="spacing" textLength="236.2852" x="284.7988" y="243.2817">new CustomerRepository(container)</text></g><g class="message" data-participant-1="App" data-participant-2="Repo"><polygon fill="#000000" points="831.9736,273.8105,841.9736,277.8105,831.9736,281.8105,835.9736,277.8105" style="stroke:#000000;stroke-width:1;"/><line style="stroke:#000000;stroke-width:1;" x1="277.7988" x2="837.9736" y1="277.8105" y2="277.8105"/><text fill="#000000" font-family="Verdana" font-size="13" lengthAdjust="spacing" textLength="113.2676" x="284.7988" y="273.0811">create(customer)</text></g><g class="message" data-participant-1="Repo" data-participant-2="Container"><polygon fill="#000000" points="1138.6982,303.6099,1148.6982,307.6099,1138.6982,311.6099,1142.6982,307.6099" style="stroke:#000000;stroke-width:1;"/><line style="stroke:#000000;stroke-width:1;" x1="843.9736" x2="1144.6982" y1="307.6099" y2="307.6099"/><text fill="#000000" font-family="Verdana" font-size="13" lengthAdjust="spacing" textLength="153.8481" x="850.9736" y="302.8804">items.create(customer)</text></g><g class="message" data-participant-1="Container" data-participant-2="Repo"><polygon fill="#000000" points="854.9736,333.4092,844.9736,337.4092,854.9736,341.4092,850.9736,337.4092" style="stroke:#000000;stroke-width:1;"/><line style="stroke:#000000;stroke-width:1;stroke-dasharray:2,2;" x1="848.9736" x2="1149.6982" y1="337.4092" y2="337.4092"/><text fill="#000000" font-family="Verdana" font-size="13" lengthAdjust="spacing" textLength="56.2466" x="860.9736" y="332.6797">resource</text></g><g class="message" data-participant-1="Repo" data-participant-2="App"><polygon fill="#000000" points="288.7988,363.2085,278.7988,367.2085,288.7988,371.2085,284.7988,367.2085" style="stroke:#000000;stroke-width:1;"/><line style="stroke:#000000;stroke-width:1;stroke-dasharray:2,2;" x1="282.7988" x2="842.9736" y1="367.2085" y2="367.2085"/><text fill="#000000" font-family="Verdana" font-size="13" lengthAdjust="spacing" textLength="63.0259" x="294.7988" y="362.479">Customer</text></g><g class="message" data-participant-1="App" data-participant-2="Caller"><polygon fill="#000000" points="44.0908,393.0078,34.0908,397.0078,44.0908,401.0078,40.0908,397.0078" style="stroke:#000000;stroke-width:1;"/><line style="stroke:#000000;stroke-width:1;stroke-dasharray:2,2;" x1="38.0908" x2="276.7988" y1="397.0078" y2="397.0078"/><text fill="#000000" font-family="Verdana" font-size="13" lengthAdjust="spacing" textLength="63.0259" x="50.0908" y="392.2783">Customer</text></g><rect fill="#FFFFFF" height="3" style="stroke:#FFFFFF;stroke-width:1;" width="1244.3359" x="5" y="425.9075"/><line style="stroke:#000000;stroke-width:0.5;" x1="5" x2="1249.3359" y1="425.9075" y2="425.9075"/><line style="stroke:#000000;stroke-width:0.5;" x1="5" x2="1249.3359" y1="428.9075" y2="428.9075"/><rect fill="#FFFFFF" height="23.7993" style="stroke:#000000;stroke-width:1;" width="118.0635" x="568.1362" y="415.0078"/><text fill="#000000" font-family="Verdana" font-size="13" font-weight="bold" lengthAdjust="spacing" textLength="99.6201" x="574.1362" y="432.0776">Get Customer</text><g class="message" data-participant-1="Caller" data-participant-2="App"><polygon fill="#000000" points="265.7988,466.6064,275.7988,470.6064,265.7988,474.6064,269.7988,470.6064" style="stroke:#000000;stroke-width:1;"/><line style="stroke:#000000;stroke-width:1;" x1="33.0908" x2="271.7988" y1="470.6064" y2="470.6064"/><text fill="#000000" font-family="Verdana" font-size="13" lengthAdjust="spacing" textLength="177.6963" x="40.0908" y="465.877">getCustomerById(id, env?)</text></g><g class="message" data-participant-1="App" data-participant-2="Config"><polygon fill="#000000" points="445.1133,496.4058,455.1133,500.4058,445.1133,504.4058,449.1133,500.4058" style="stroke:#000000;stroke-width:1;"/><line style="stroke:#000000;stroke-width:1;" x1="277.7988" x2="451.1133" y1="500.4058" y2="500.4058"/><text fill="#000000" font-family="Verdana" font-size="13" lengthAdjust="spacing" textLength="155.3145" x="284.7988" y="495.6763">loadCosmosConfig(env)</text></g><g class="message" data-participant-1="App" data-participant-2="ClientFactory"><polygon fill="#000000" points="614.0537,526.2051,624.0537,530.2051,614.0537,534.2051,618.0537,530.2051" style="stroke:#000000;stroke-width:1;"/><line style="stroke:#000000;stroke-width:1;" x1="277.7988" x2="620.0537" y1="530.2051" y2="530.2051"/><text fill="#000000" font-family="Verdana" font-size="13" lengthAdjust="spacing" textLength="154.8828" x="284.7988" y="525.4756">createContainer(config)</text></g><g class="message" data-participant-1="App" data-participant-2="Repo"><polygon fill="#000000" points="831.9736,556.0044,841.9736,560.0044,831.9736,564.0044,835.9736,560.0044" style="stroke:#000000;stroke-width:1;"/><line style="stroke:#000000;stroke-width:1;" x1="277.7988" x2="837.9736" y1="560.0044" y2="560.0044"/><text fill="#000000" font-family="Verdana" font-size="13" lengthAdjust="spacing" textLength="236.2852" x="284.7988" y="555.2749">new CustomerRepository(container)</text></g><g class="message" data-participant-1="App" data-participant-2="Repo"><polygon fill="#000000" points="831.9736,585.8037,841.9736,589.8037,831.9736,593.8037,835.9736,589.8037" style="stroke:#000000;stroke-width:1;"/><line style="stroke:#000000;stroke-width:1;" x1="277.7988" x2="837.9736" y1="589.8037" y2="589.8037"/><text fill="#000000" font-family="Verdana" font-size="13" lengthAdjust="spacing" textLength="74.6167" x="284.7988" y="585.0742">getById(id)</text></g><g class="message" data-participant-1="Repo" data-participant-2="Container"><polygon fill="#000000" points="1138.6982,615.603,1148.6982,619.603,1138.6982,623.603,1142.6982,619.603" style="stroke:#000000;stroke-width:1;"/><line style="stroke:#000000;stroke-width:1;" x1="843.9736" x2="1144.6982" y1="619.603" y2="619.603"/><text fill="#000000" font-family="Verdana" font-size="13" lengthAdjust="spacing" textLength="114.6831" x="850.9736" y="614.8735">item(id,id).read()</text></g><g class="message" data-participant-1="Container" data-participant-2="Repo"><polygon fill="#000000" points="854.9736,645.4023,844.9736,649.4023,854.9736,653.4023,850.9736,649.4023" style="stroke:#000000;stroke-width:1;"/><line style="stroke:#000000;stroke-width:1;stroke-dasharray:2,2;" x1="848.9736" x2="1149.6982" y1="649.4023" y2="649.4023"/><text fill="#000000" font-family="Verdana" font-size="13" lengthAdjust="spacing" textLength="96.0845" x="860.9736" y="644.6729">resource | 404</text></g><g class="message" data-participant-1="Repo" data-participant-2="App"><polygon fill="#000000" points="288.7988,675.2017,278.7988,679.2017,288.7988,683.2017,284.7988,679.2017" style="stroke:#000000;stroke-width:1;"/><line style="stroke:#000000;stroke-width:1;stroke-dasharray:2,2;" x1="282.7988" x2="842.9736" y1="679.2017" y2="679.2017"/><text fill="#000000" font-family="Verdana" font-size="13" lengthAdjust="spacing" textLength="101.6577" x="294.7988" y="674.4722">Customer | null</text></g><g class="message" data-participant-1="App" data-participant-2="Caller"><polygon fill="#000000" points="44.0908,705.001,34.0908,709.001,44.0908,713.001,40.0908,709.001" style="stroke:#000000;stroke-width:1;"/><line style="stroke:#000000;stroke-width:1;stroke-dasharray:2,2;" x1="38.0908" x2="276.7988" y1="709.001" y2="709.001"/><text fill="#000000" font-family="Verdana" font-size="13" lengthAdjust="spacing" textLength="101.6577" x="50.0908" y="704.2715">Customer | null</text></g><rect fill="#FFFFFF" height="3" style="stroke:#FFFFFF;stroke-width:1;" width="1244.3359" x="5" y="737.9006"/><line style="stroke:#000000;stroke-width:0.5;" x1="5" x2="1249.3359" y1="737.9006" y2="737.9006"/><line style="stroke:#000000;stroke-width:0.5;" x1="5" x2="1249.3359" y1="740.9006" y2="740.9006"/><rect fill="#FFFFFF" height="23.7993" style="stroke:#000000;stroke-width:1;" width="144.9395" x="554.6982" y="727.001"/><text fill="#000000" font-family="Verdana" font-size="13" font-weight="bold" lengthAdjust="spacing" textLength="126.4961" x="560.6982" y="744.0708">Update Customer</text><g class="message" data-participant-1="Caller" data-participant-2="App"><polygon fill="#000000" points="265.7988,778.5996,275.7988,782.5996,265.7988,786.5996,269.7988,782.5996" style="stroke:#000000;stroke-width:1;"/><line style="stroke:#000000;stroke-width:1;" x1="33.0908" x2="271.7988" y1="782.5996" y2="782.5996"/><text fill="#000000" font-family="Verdana" font-size="13" lengthAdjust="spacing" textLength="220.708" x="40.0908" y="777.8701">updateCustomer(customer, env?)</text></g><g class="message" data-participant-1="App" data-participant-2="Config"><polygon fill="#000000" points="445.1133,808.3989,455.1133,812.3989,445.1133,816.3989,449.1133,812.3989" style="stroke:#000000;stroke-width:1;"/><line style="stroke:#000000;stroke-width:1;" x1="277.7988" x2="451.1133" y1="812.3989" y2="812.3989"/><text fill="#000000" font-family="Verdana" font-size="13" lengthAdjust="spacing" textLength="155.3145" x="284.7988" y="807.6694">loadCosmosConfig(env)</text></g><g class="message" data-participant-1="App" data-participant-2="ClientFactory"><polygon fill="#000000" points="614.0537,838.1982,624.0537,842.1982,614.0537,846.1982,618.0537,842.1982" style="stroke:#000000;stroke-width:1;"/><line style="stroke:#000000;stroke-width:1;" x1="277.7988" x2="620.0537" y1="842.1982" y2="842.1982"/><text fill="#000000" font-family="Verdana" font-size="13" lengthAdjust="spacing" textLength="154.8828" x="284.7988" y="837.4688">createContainer(config)</text></g><g class="message" data-participant-1="App" data-participant-2="Repo"><polygon fill="#000000" points="831.9736,867.9976,841.9736,871.9976,831.9736,875.9976,835.9736,871.9976" style="stroke:#000000;stroke-width:1;"/><line style="stroke:#000000;stroke-width:1;" x1="277.7988" x2="837.9736" y1="871.9976" y2="871.9976"/><text fill="#000000" font-family="Verdana" font-size="13" lengthAdjust="spacing" textLength="236.2852" x="284.7988" y="867.2681">new CustomerRepository(container)</text></g><g class="message" data-participant-1="App" data-participant-2="Repo"><polygon fill="#000000" points="831.9736,897.7969,841.9736,901.7969,831.9736,905.7969,835.9736,901.7969" style="stroke:#000000;stroke-width:1;"/><line style="stroke:#000000;stroke-width:1;" x1="277.7988" x2="837.9736" y1="901.7969" y2="901.7969"/><text fill="#000000" font-family="Verdana" font-size="13" lengthAdjust="spacing" textLength="117.6284" x="284.7988" y="897.0674">update(customer)</text></g><g class="message" data-participant-1="Repo" data-participant-2="Container"><polygon fill="#000000" points="1138.6982,927.5962,1148.6982,931.5962,1138.6982,935.5962,1142.6982,931.5962" style="stroke:#000000;stroke-width:1;"/><line style="stroke:#000000;stroke-width:1;" x1="843.9736" x2="1144.6982" y1="931.5962" y2="931.5962"/><text fill="#000000" font-family="Verdana" font-size="13" lengthAdjust="spacing" textLength="193.4893" x="850.9736" y="926.8667">item(id,id).replace(customer)</text></g><g class="message" data-participant-1="Container" data-participant-2="Repo"><polygon fill="#000000" points="854.9736,957.3955,844.9736,961.3955,854.9736,965.3955,850.9736,961.3955" style="stroke:#000000;stroke-width:1;"/><line style="stroke:#000000;stroke-width:1;stroke-dasharray:2,2;" x1="848.9736" x2="1149.6982" y1="961.3955" y2="961.3955"/><text fill="#000000" font-family="Verdana" font-size="13" lengthAdjust="spacing" textLength="56.2466" x="860.9736" y="956.666">resource</text></g><g class="message" data-participant-1="Repo" data-participant-2="App"><polygon fill="#000000" points="288.7988,987.1948,278.7988,991.1948,288.7988,995.1948,284.7988,991.1948" style="stroke:#000000;stroke-width:1;"/><line style="stroke:#000000;stroke-width:1;stroke-dasharray:2,2;" x1="282.7988" x2="842.9736" y1="991.1948" y2="991.1948"/><text fill="#000000" font-family="Verdana" font-size="13" lengthAdjust="spacing" textLength="63.0259" x="294.7988" y="986.4653">Customer</text></g><g class="message" data-participant-1="App" data-participant-2="Caller"><polygon fill="#000000" points="44.0908,1016.9941,34.0908,1020.9941,44.0908,1024.9941,40.0908,1020.9941" style="stroke:#000000;stroke-width:1;"/><line style="stroke:#000000;stroke-width:1;stroke-dasharray:2,2;" x1="38.0908" x2="276.7988" y1="1020.9941" y2="1020.9941"/><text fill="#000000" font-family="Verdana" font-size="13" lengthAdjust="spacing" textLength="63.0259" x="50.0908" y="1016.2646">Customer</text></g><rect fill="#FFFFFF" height="3" style="stroke:#FFFFFF;stroke-width:1;" width="1244.3359" x="5" y="1049.8938"/><line style="stroke:#000000;stroke-width:0.5;" x1="5" x2="1249.3359" y1="1049.8938" y2="1049.8938"/><line style="stroke:#000000;stroke-width:0.5;" x1="5" x2="1249.3359" y1="1052.8938" y2="1052.8938"/><rect fill="#FFFFFF" height="23.7993" style="stroke:#000000;stroke-width:1;" width="140.02" x="557.158" y="1038.9941"/><text fill="#000000" font-family="Verdana" font-size="13" font-weight="bold" lengthAdjust="spacing" textLength="121.5767" x="563.158" y="1056.064">Delete Customer</text><g class="message" data-participant-1="Caller" data-participant-2="App"><polygon fill="#000000" points="265.7988,1090.5928,275.7988,1094.5928,265.7988,1098.5928,269.7988,1094.5928" style="stroke:#000000;stroke-width:1;"/><line style="stroke:#000000;stroke-width:1;" x1="33.0908" x2="271.7988" y1="1094.5928" y2="1094.5928"/><text fill="#000000" font-family="Verdana" font-size="13" lengthAdjust="spacing" textLength="166.5752" x="40.0908" y="1089.8633">deleteCustomer(id, env?)</text></g><g class="message" data-participant-1="App" data-participant-2="Config"><polygon fill="#000000" points="445.1133,1120.3921,455.1133,1124.3921,445.1133,1128.3921,449.1133,1124.3921" style="stroke:#000000;stroke-width:1;"/><line style="stroke:#000000;stroke-width:1;" x1="277.7988" x2="451.1133" y1="1124.3921" y2="1124.3921"/><text fill="#000000" font-family="Verdana" font-size="13" lengthAdjust="spacing" textLength="155.3145" x="284.7988" y="1119.6626">loadCosmosConfig(env)</text></g><g class="message" data-participant-1="App" data-participant-2="ClientFactory"><polygon fill="#000000" points="614.0537,1150.1914,624.0537,1154.1914,614.0537,1158.1914,618.0537,1154.1914" style="stroke:#000000;stroke-width:1;"/><line style="stroke:#000000;stroke-width:1;" x1="277.7988" x2="620.0537" y1="1154.1914" y2="1154.1914"/><text fill="#000000" font-family="Verdana" font-size="13" lengthAdjust="spacing" textLength="154.8828" x="284.7988" y="1149.4619">createContainer(config)</text></g><g class="message" data-participant-1="App" data-participant-2="Repo"><polygon fill="#000000" points="831.9736,1179.9907,841.9736,1183.9907,831.9736,1187.9907,835.9736,1183.9907" style="stroke:#000000;stroke-width:1;"/><line style="stroke:#000000;stroke-width:1;" x1="277.7988" x2="837.9736" y1="1183.9907" y2="1183.9907"/><text fill="#000000" font-family="Verdana" font-size="13" lengthAdjust="spacing" textLength="236.2852" x="284.7988" y="1179.2612">new CustomerRepository(container)</text></g><g class="message" data-participant-1="App" data-participant-2="Repo"><polygon fill="#000000" points="831.9736,1209.79,841.9736,1213.79,831.9736,1217.79,835.9736,1213.79" style="stroke:#000000;stroke-width:1;"/><line style="stroke:#000000;stroke-width:1;" x1="277.7988" x2="837.9736" y1="1213.79" y2="1213.79"/><text fill="#000000" font-family="Verdana" font-size="13" lengthAdjust="spacing" textLength="63.4956" x="284.7988" y="1209.0605">delete(id)</text></g><g class="message" data-participant-1="Repo" data-participant-2="Container"><polygon fill="#000000" points="1138.6982,1239.5894,1148.6982,1243.5894,1138.6982,1247.5894,1142.6982,1243.5894" style="stroke:#000000;stroke-width:1;"/><line style="stroke:#000000;stroke-width:1;" x1="843.9736" x2="1144.6982" y1="1243.5894" y2="1243.5894"/><text fill="#000000" font-family="Verdana" font-size="13" lengthAdjust="spacing" textLength="125.5059" x="850.9736" y="1238.8599">item(id,id).delete()</text></g><g class="message" data-participant-1="Container" data-participant-2="Repo"><polygon fill="#000000" points="854.9736,1269.3887,844.9736,1273.3887,854.9736,1277.3887,850.9736,1273.3887" style="stroke:#000000;stroke-width:1;"/><line style="stroke:#000000;stroke-width:1;stroke-dasharray:2,2;" x1="848.9736" x2="1149.6982" y1="1273.3887" y2="1273.3887"/><text fill="#000000" font-family="Verdana" font-size="13" lengthAdjust="spacing" textLength="15.5835" x="860.9736" y="1268.6592">ok</text></g><g class="message" data-participant-1="Repo" data-participant-2="App"><polygon fill="#000000" points="288.7988,1299.188,278.7988,1303.188,288.7988,1307.188,284.7988,1303.188" style="stroke:#000000;stroke-width:1;"/><line style="stroke:#000000;stroke-width:1;stroke-dasharray:2,2;" x1="282.7988" x2="842.9736" y1="1303.188" y2="1303.188"/><text fill="#000000" font-family="Verdana" font-size="13" lengthAdjust="spacing" textLength="27.2505" x="294.7988" y="1298.4585">void</text></g><g class="message" data-participant-1="App" data-participant-2="Caller"><polygon fill="#000000" points="44.0908,1328.9873,34.0908,1332.9873,44.0908,1336.9873,40.0908,1332.9873" style="stroke:#000000;stroke-width:1;"/><line style="stroke:#000000;stroke-width:1;stroke-dasharray:2,2;" x1="38.0908" x2="276.7988" y1="1332.9873" y2="1332.9873"/><text fill="#000000" font-family="Verdana" font-size="13" lengthAdjust="spacing" textLength="27.2505" x="50.0908" y="1328.2578">void</text></g><rect fill="#FFFFFF" height="3" style="stroke:#FFFFFF;stroke-width:1;" width="1244.3359" x="5" y="1361.887"/><line style="stroke:#000000;stroke-width:0.5;" x1="5" x2="1249.3359" y1="1361.887" y2="1361.887"/><line style="stroke:#000000;stroke-width:0.5;" x1="5" x2="1249.3359" y1="1364.887" y2="1364.887"/><rect fill="#FFFFFF" height="23.7993" style="stroke:#000000;stroke-width:1;" width="127.0391" x="563.6484" y="1350.9873"/><text fill="#000000" font-family="Verdana" font-size="13" font-weight="bold" lengthAdjust="spacing" textLength="108.5957" x="569.6484" y="1368.0571">List Customers</text><g class="message" data-participant-1="Caller" data-participant-2="App"><polygon fill="#000000" points="265.7988,1402.5859,275.7988,1406.5859,265.7988,1410.5859,269.7988,1406.5859" style="stroke:#000000;stroke-width:1;"/><line style="stroke:#000000;stroke-width:1;" x1="33.0908" x2="271.7988" y1="1406.5859" y2="1406.5859"/><text fill="#000000" font-family="Verdana" font-size="13" lengthAdjust="spacing" textLength="131.3901" x="40.0908" y="1401.8564">listCustomers(env?)</text></g><g class="message" data-participant-1="App" data-participant-2="Config"><polygon fill="#000000" points="445.1133,1432.3853,455.1133,1436.3853,445.1133,1440.3853,449.1133,1436.3853" style="stroke:#000000;stroke-width:1;"/><line style="stroke:#000000;stroke-width:1;" x1="277.7988" x2="451.1133" y1="1436.3853" y2="1436.3853"/><text fill="#000000" font-family="Verdana" font-size="13" lengthAdjust="spacing" textLength="155.3145" x="284.7988" y="1431.6558">loadCosmosConfig(env)</text></g><g class="message" data-participant-1="App" data-participant-2="ClientFactory"><polygon fill="#000000" points="614.0537,1462.1846,624.0537,1466.1846,614.0537,1470.1846,618.0537,1466.1846" style="stroke:#000000;stroke-width:1;"/><line style="stroke:#000000;stroke-width:1;" x1="277.7988" x2="620.0537" y1="1466.1846" y2="1466.1846"/><text fill="#000000" font-family="Verdana" font-size="13" lengthAdjust="spacing" textLength="154.8828" x="284.7988" y="1461.4551">createContainer(config)</text></g><g class="message" data-participant-1="App" data-participant-2="Repo"><polygon fill="#000000" points="831.9736,1491.9839,841.9736,1495.9839,831.9736,1499.9839,835.9736,1495.9839" style="stroke:#000000;stroke-width:1;"/><line style="stroke:#000000;stroke-width:1;" x1="277.7988" x2="837.9736" y1="1495.9839" y2="1495.9839"/><text fill="#000000" font-family="Verdana" font-size="13" lengthAdjust="spacing" textLength="236.2852" x="284.7988" y="1491.2544">new CustomerRepository(container)</text></g><g class="message" data-participant-1="App" data-participant-2="Repo"><polygon fill="#000000" points="831.9736,1521.7832,841.9736,1525.7832,831.9736,1529.7832,835.9736,1525.7832" style="stroke:#000000;stroke-width:1;"/><line style="stroke:#000000;stroke-width:1;" x1="277.7988" x2="837.9736" y1="1525.7832" y2="1525.7832"/><text fill="#000000" font-family="Verdana" font-size="13" lengthAdjust="spacing" textLength="30.8369" x="284.7988" y="1521.0537">list()</text></g><g class="message" data-participant-1="Repo" data-participant-2="Container"><polygon fill="#000000" points="1138.6982,1551.5825,1148.6982,1555.5825,1138.6982,1559.5825,1142.6982,1555.5825" style="stroke:#000000;stroke-width:1;"/><line style="stroke:#000000;stroke-width:1;" x1="843.9736" x2="1144.6982" y1="1555.5825" y2="1555.5825"/><text fill="#000000" font-family="Verdana" font-size="13" lengthAdjust="spacing" textLength="282.7246" x="850.9736" y="1550.853">items.query("SELECT * FROM c").fetchAll()</text></g><g class="message" data-participant-1="Container" data-participant-2="Repo"><polygon fill="#000000" points="854.9736,1581.3818,844.9736,1585.3818,854.9736,1589.3818,850.9736,1585.3818" style="stroke:#000000;stroke-width:1;"/><line style="stroke:#000000;stroke-width:1;stroke-dasharray:2,2;" x1="848.9736" x2="1149.6982" y1="1585.3818" y2="1585.3818"/><text fill="#000000" font-family="Verdana" font-size="13" lengthAdjust="spacing" textLength="74.8262" x="860.9736" y="1580.6523">resources[]</text></g><g class="message" data-participant-1="Repo" data-participant-2="App"><polygon fill="#000000" points="288.7988,1611.1812,278.7988,1615.1812,288.7988,1619.1812,284.7988,1615.1812" style="stroke:#000000;stroke-width:1;"/><line style="stroke:#000000;stroke-width:1;stroke-dasharray:2,2;" x1="282.7988" x2="842.9736" y1="1615.1812" y2="1615.1812"/><text fill="#000000" font-family="Verdana" font-size="13" lengthAdjust="spacing" textLength="74.8325" x="294.7988" y="1610.4517">Customer[]</text></g><g class="message" data-participant-1="App" data-participant-2="Caller"><polygon fill="#000000" points="44.0908,1640.9805,34.0908,1644.9805,44.0908,1648.9805,40.0908,1644.9805" style="stroke:#000000;stroke-width:1;"/><line style="stroke:#000000;stroke-width:1;stroke-dasharray:2,2;" x1="38.0908" x2="276.7988" y1="1644.9805" y2="1644.9805"/><text fill="#000000" font-family="Verdana" font-size="13" lengthAdjust="spacing" textLength="74.8325" x="50.0908" y="1640.251">Customer[]</text></g><!--SRC=[rPHDJzmm48Rl-HNJdB8LB3rmGbeGB1-jj5KbFaxGW-KCODKRkxP3XTGVpzYERLW8owNIzfRC-yxuzQEHFxbxN29eoKHNLOmxPQ2UCodHrC0inCzAC-C45vfr3kf3hU4hIet6tdIDDNo7QJrrTX8wI7rfdwlkLjp1Gh4MpT30GottHCjgcrqgagJ0pkKsNukbqXn-JqFsnvKPlNLgYGREKIihl25D6fGYv7c-z6QKuoCVr16f12VzLTLi1dE3p27aCsUpAjA3xNrF1VQ01qjoD2d45c3tS32fl8cy0x0za8GidXrB3TcAw_cro-mKgOc8iztVYbmT_ia9ozszERQj-kFKd7HIXNeC6Jl891mkxVILjLYsoq23LlM6up0eeqcXuld-WCZkcU8Xdw5xb_0TkYGVFNvh6z5kC5mAEuGSv-flGFgK0hJD6gRm5tQ_x8wH9RNhfHm7d0oUyvLkrorp7op_qpB7n1zOvWAT7aR-htVw62MkOTq6IsQzqLiTitvegGVh25RrQnNeWnBjQvYXwa4kX2slWtsBeoH7DZGRYz37RDvxQt_tIFtrnSdYP7u9d-7q_CTtuFLaUekEtnzAkUwfiDS_nxQLbD5z9Uq9]--></g></svg>