<svg xmlns="http://www.w3.org/2000/svg" xmlns:xlink="http://www.w3.org/1999/xlink" contentStyleType="text/css" data-diagram-type="CLASS" height="543px" preserveAspectRatio="none" style="width:1013px;height:543px;background:#FFFFFF;" version="1.1" viewBox="0 0 1013 543" width="1013px" zoomAndPan="magnify"><defs/><g><!--class Customer--><g class="entity" data-entity="Customer" data-source-line="3" data-uid="ent0002" id="entity_Customer"><rect fill="#FFFFFF" height="112.0586" rx="2.5" ry="2.5" style="stroke:#000000;stroke-width:1;" width="156.583" x="127.66" y="424.17"/><ellipse cx="168.2645" cy="438.17" fill="#FFFFFF" rx="9" ry="9" style="stroke:#000000;stroke-width:1;"/><path d="M170.7376,444.3131 Q170.1566,444.6119 169.5174,444.7613 Q168.8783,444.9107 168.1727,444.9107 Q165.6659,444.9107 164.346,443.2589 Q163.0262,441.607 163.0262,438.4859 Q163.0262,435.3565 164.346,433.7047 Q165.6659,432.0528 168.1727,432.0528 Q168.8783,432.0528 169.5257,432.2022 Q170.1732,432.3516 170.7376,432.6505 L170.7376,435.3731 Q170.1068,434.7921 169.5133,434.5223 Q168.9198,434.2525 168.2889,434.2525 Q166.9442,434.2525 166.2594,435.3192 Q165.5746,436.3858 165.5746,438.4859 Q165.5746,440.5777 166.2594,441.6444 Q166.9442,442.711 168.2889,442.711 Q168.9198,442.711 169.5133,442.4412 Q170.1068,442.1715 170.7376,441.5904 Z " fill="#000000"/><text fill="#000000" font-family="Verdana" font-size="14" lengthAdjust="spacing" textLength="67.874" x="185.7645" y="443.7379">Customer</text><line style="stroke:#000000;stroke-width:1;" x1="128.66" x2="283.243" y1="452.17" y2="452.17"/><ellipse cx="138.66" cy="466.1773" fill="none" rx="3" ry="3" style="stroke:#000000;stroke-width:1;"/><text fill="#000000" font-family="Verdana" font-size="14" lengthAdjust="spacing" textLength="64.0527" x="145.66" y="470.2452">id: string</text><ellipse cx="138.66" cy="483.192" fill="none" rx="3" ry="3" style="stroke:#000000;stroke-width:1;"/><text fill="#000000" font-family="Verdana" font-size="14" lengthAdjust="spacing" textLength="90.7129" x="145.66" y="487.2598">name: string</text><ellipse cx="138.66" cy="500.2066" fill="none" rx="3" ry="3" style="stroke:#000000;stroke-width:1;"/><text fill="#000000" font-family="Verdana" font-size="14" lengthAdjust="spacing" textLength="89.5371" x="145.66" y="504.2745">email: string</text><ellipse cx="138.66" cy="517.2213" fill="none" rx="3" ry="3" style="stroke:#000000;stroke-width:1;"/><text fill="#000000" font-family="Verdana" font-size="14" lengthAdjust="spacing" textLength="132.583" x="145.66" y="521.2891">loyaltyTier?: string</text><line style="stroke:#000000;stroke-width:1;" x1="128.66" x2="283.243" y1="528.2286" y2="528.2286"/></g><!--class CustomerRepository--><g class="entity" data-entity="CustomerRepository" data-source-line="10" data-uid="ent0003" id="entity_CustomerRepository"><rect fill="#FFFFFF" height="146.0879" rx="2.5" ry="2.5" style="stroke:#000000;stroke-width:1;" width="387.9043" x="12" y="218.08"/><ellipse cx="130.9136" cy="232.08" fill="#FFFFFF" rx="9" ry="9" style="stroke:#000000;stroke-width:1;"/><path d="M133.3867,238.2231 Q132.8057,238.5219 132.1665,238.6713 Q131.5273,238.8207 130.8218,238.8207 Q128.3149,238.8207 126.9951,237.1689 Q125.6753,235.517 125.6753,232.3959 Q125.6753,229.2665 126.9951,227.6147 Q128.3149,225.9628 130.8218,225.9628 Q131.5273,225.9628 132.1748,226.1122 Q132.8223,226.2616 133.3867,226.5605 L133.3867,229.2831 Q132.7559,228.7021 132.1624,228.4323 Q131.5688,228.1625 130.938,228.1625 Q129.5933,228.1625 128.9084,229.2292 Q128.2236,230.2958 128.2236,232.3959 Q128.2236,234.4877 128.9084,235.5544 Q129.5933,236.621 130.938,236.621 Q131.5688,236.621 132.1624,236.3512 Q132.7559,236.0815 133.3867,235.5004 Z " fill="#000000"/><text fill="#000000" font-family="Verdana" font-size="14" lengthAdjust="spacing" textLength="142.5771" x="148.4136" y="237.6479">CustomerRepository</text><line style="stroke:#000000;stroke-width:1;" x1="13" x2="398.9043" y1="246.08" y2="246.08"/><rect fill="none" height="6" style="stroke:#000000;stroke-width:1;" width="6" x="20" y="257.0873"/><text fill="#000000" font-family="Verdana" font-size="14" lengthAdjust="spacing" textLength="144.9424" x="30" y="264.1552">container: Container</text><line style="stroke:#000000;stroke-width:1;" x1="13" x2="398.9043" y1="271.0946" y2="271.0946"/><ellipse cx="23" cy="285.102" fill="#FFFFFF" rx="3" ry="3" style="stroke:#000000;stroke-width:1;"/><text fill="#000000" font-family="Verdana" font-size="14" lengthAdjust="spacing" textLength="359.208" x="30" y="289.1698">create(customer: Customer): Promise&lt;Customer&gt;</text><ellipse cx="23" cy="302.1166" fill="#FFFFFF" rx="3" ry="3" style="stroke:#000000;stroke-width:1;"/><text fill="#000000" font-family="Verdana" font-size="14" lengthAdjust="spacing" textLength="331.5225" x="30" y="306.1845">getById(id: string): Promise&lt;Customer | null&gt;</text><ellipse cx="23" cy="319.1313" fill="#FFFFFF" rx="3" ry="3" style="stroke:#000000;stroke-width:1;"/><text fill="#000000" font-family="Verdana" font-size="14" lengthAdjust="spacing" textLength="363.9043" x="30" y="323.1991">update(customer: Customer): Promise&lt;Customer&gt;</text><ellipse cx="23" cy="336.1459" fill="#FFFFFF" rx="3" ry="3" style="stroke:#000000;stroke-width:1;"/><text fill="#000000" font-family="Verdana" font-size="14" lengthAdjust="spacing" textLength="239.415" x="30" y="340.2138">delete(id: string): Promise&lt;void&gt;</text><ellipse cx="23" cy="353.1606" fill="#FFFFFF" rx="3" ry="3" style="stroke:#000000;stroke-width:1;"/><text fill="#000000" font-family="Verdana" font-size="14" lengthAdjust="spacing" textLength="203.998" x="30" y="357.2284">list(): Promise&lt;Customer[]&gt;</text></g><!--class CosmosConfig--><g class="entity" data-entity="CosmosConfig" data-source-line="19" data-uid="ent0004" id="entity_CosmosConfig"><rect fill="#FFFFFF" height="112.0586" rx="2.5" ry="2.5" style="stroke:#000000;stroke-width:1;" width="155.6943" x="435.11" y="235.1"/><ellipse cx="460.7557" cy="249.1" fill="#FFFFFF" rx="9" ry="9" style="stroke:#000000;stroke-width:1;"/><path d="M463.2288,255.2431 Q462.6478,255.5419 462.0086,255.6913 Q461.3695,255.8407 460.6639,255.8407 Q458.1571,255.8407 456.8372,254.1889 Q455.5174,252.537 455.5174,249.4159 Q455.5174,246.2865 456.8372,244.6347 Q458.1571,242.9828 460.6639,242.9828 Q461.3695,242.9828 462.0169,243.1322 Q462.6644,243.2816 463.2288,243.5805 L463.2288,246.3031 Q462.598,245.7221 462.0045,245.4523 Q461.411,245.1825 460.7801,245.1825 Q459.4354,245.1825 458.7506,246.2492 Q458.0658,247.3158 458.0658,249.4159 Q458.0658,251.5077 458.7506,252.5744 Q459.4354,253.641 460.7801,253.641 Q461.411,253.641 462.0045,253.3712 Q462.598,253.1015 463.2288,252.5204 Z " fill="#000000"/><text fill="#000000" font-family="Verdana" font-size="14" lengthAdjust="spacing" textLength="99.5928" x="475.5659" y="254.6679">CosmosConfig</text><line style="stroke:#000000;stroke-width:1;" x1="436.11" x2="589.8043" y1="263.1" y2="263.1"/><ellipse cx="446.11" cy="277.1073" fill="none" rx="3" ry="3" style="stroke:#000000;stroke-width:1;"/><text fill="#000000" font-family="Verdana" font-size="14" lengthAdjust="spacing" textLength="112.8477" x="453.11" y="281.1752">endpoint: string</text><ellipse cx="446.11" cy="294.122" fill="none" rx="3" ry="3" style="stroke:#000000;stroke-width:1;"/><text fill="#000000" font-family="Verdana" font-size="14" lengthAdjust="spacing" textLength="76.3984" x="453.11" y="298.1898">key: string</text><ellipse cx="446.11" cy="311.1366" fill="none" rx="3" ry="3" style="stroke:#000000;stroke-width:1;"/><text fill="#000000" font-family="Verdana" font-size="14" lengthAdjust="spacing" textLength="129.9238" x="453.11" y="315.2045">databaseId: string</text><ellipse cx="446.11" cy="328.1513" fill="none" rx="3" ry="3" style="stroke:#000000;stroke-width:1;"/><text fill="#000000" font-family="Verdana" font-size="14" lengthAdjust="spacing" textLength="131.6943" x="453.11" y="332.2191">containerId: string</text><line style="stroke:#000000;stroke-width:1;" x1="436.11" x2="589.8043" y1="339.1586" y2="339.1586"/></g><!--class AppHelpers--><g class="entity" data-entity="AppHelpers" data-source-line="26" data-uid="ent0005" id="entity_AppHelpers"><rect fill="#FFFFFF" height="146.0879" rx="2.5" ry="2.5" style="stroke:#000000;stroke-width:1;" width="589.3252" x="218.29" y="12"/><ellipse cx="469.1782" cy="26" fill="#FFFFFF" rx="9" ry="9" style="stroke:#000000;stroke-width:1;"/><path d="M471.6513,32.1431 Q471.0703,32.4419 470.4311,32.5913 Q469.792,32.7407 469.0864,32.7407 Q466.5796,32.7407 465.2597,31.0889 Q463.9399,29.437 463.9399,26.3159 Q463.9399,23.1865 465.2597,21.5347 Q466.5796,19.8828 469.0864,19.8828 Q469.792,19.8828 470.4394,20.0322 Q471.0869,20.1816 471.6513,20.4805 L471.6513,23.2031 Q471.0205,22.6221 470.427,22.3523 Q469.8335,22.0825 469.2026,22.0825 Q467.8579,22.0825 467.1731,23.1492 Q466.4882,24.2158 466.4882,26.3159 Q466.4882,28.4077 467.1731,29.4744 Q467.8579,30.541 469.2026,30.541 Q469.8335,30.541 470.427,30.2712 Q471.0205,30.0015 471.6513,29.4204 Z " fill="#000000"/><text fill="#000000" font-family="Verdana" font-size="14" lengthAdjust="spacing" textLength="80.0488" x="486.6782" y="31.5679">AppHelpers</text><line style="stroke:#000000;stroke-width:1;" x1="219.29" x2="806.6152" y1="40" y2="40"/><line style="stroke:#000000;stroke-width:1;" x1="219.29" x2="806.6152" y1="48" y2="48"/><ellipse cx="229.29" cy="62.0073" fill="#FFFFFF" rx="3" ry="3" style="stroke:#000000;stroke-width:1;"/><text fill="#000000" font-family="Verdana" font-size="14" lengthAdjust="spacing" textLength="560.6289" x="236.29" y="66.0752">createCustomer(customer: Customer, env?: ProcessEnv): Promise&lt;Customer&gt;</text><ellipse cx="229.29" cy="79.022" fill="#FFFFFF" rx="3" ry="3" style="stroke:#000000;stroke-width:1;"/><text fill="#000000" font-family="Verdana" font-size="14" lengthAdjust="spacing" textLength="532.9434" x="236.29" y="83.0898">getCustomerById(id: string, env?: ProcessEnv): Promise&lt;Customer | null&gt;</text><ellipse cx="229.29" cy="96.0366" fill="#FFFFFF" rx="3" ry="3" style="stroke:#000000;stroke-width:1;"/><text fill="#000000" font-family="Verdana" font-size="14" lengthAdjust="spacing" textLength="565.3252" x="236.29" y="100.1045">updateCustomer(customer: Customer, env?: ProcessEnv): Promise&lt;Customer&gt;</text><ellipse cx="229.29" cy="113.0513" fill="#FFFFFF" rx="3" ry="3" style="stroke:#000000;stroke-width:1;"/><text fill="#000000" font-family="Verdana" font-size="14" lengthAdjust="spacing" textLength="440.8359" x="236.29" y="117.1191">deleteCustomer(id: string, env?: ProcessEnv): Promise&lt;void&gt;</text><ellipse cx="229.29" cy="130.0659" fill="#FFFFFF" rx="3" ry="3" style="stroke:#000000;stroke-width:1;"/><text fill="#000000" font-family="Verdana" font-size="14" lengthAdjust="spacing" textLength="402.6982" x="236.29" y="134.1338">listCustomers(env?: ProcessEnv): Promise&lt;Customer[]&gt;</text><ellipse cx="229.29" cy="147.0806" fill="#FFFFFF" rx="3" ry="3" style="stroke:#000000;stroke-width:1;"/><text fill="#000000" font-family="Verdana" font-size="14" lengthAdjust="spacing" textLength="450.3174" x="236.29" y="151.1484">storeSampleCustomer(env?: ProcessEnv): Promise&lt;Customer&gt;</text></g><!--class CosmosClientFactory--><g class="entity" data-entity="CosmosClientFactory" data-source-line="35" data-uid="ent0006" id="entity_CosmosClientFactory"><rect fill="#FFFFFF" height="61.0146" rx="2.5" ry="2.5" style="stroke:#000000;stroke-width:1;" width="381.0205" x="625.44" y="260.62"/><ellipse cx="738.6148" cy="274.62" fill="#FFFFFF" rx="9" ry="9" style="stroke:#000000;stroke-width:1;"/><path d="M741.0879,280.7631 Q740.5069,281.0619 739.8677,281.2113 Q739.2286,281.3607 738.523,281.3607 Q736.0162,281.3607 734.6963,279.7089 Q733.3765,278.057 733.3765,274.9359 Q733.3765,271.8065 734.6963,270.1547 Q736.0162,268.5028 738.523,268.5028 Q739.2286,268.5028 739.876,268.6522 Q740.5235,268.8016 741.0879,269.1005 L741.0879,271.8231 Q740.4571,271.2421 739.8636,270.9723 Q739.2701,270.7025 738.6392,270.7025 Q737.2945,270.7025 736.6097,271.7692 Q735.9249,272.8358 735.9249,274.9359 Q735.9249,277.0277 736.6097,278.0944 Q737.2945,279.161 738.6392,279.161 Q739.2701,279.161 739.8636,278.8912 Q740.4571,278.6215 741.0879,278.0404 Z " fill="#000000"/><text fill="#000000" font-family="Verdana" font-size="14" lengthAdjust="spacing" textLength="147.1709" x="756.1148" y="280.1879">CosmosClientFactory</text><line style="stroke:#000000;stroke-width:1;" x1="626.44" x2="1005.4605" y1="288.62" y2="288.62"/><line style="stroke:#000000;stroke-width:1;" x1="626.44" x2="1005.4605" y1="296.62" y2="296.62"/><ellipse cx="636.44" cy="310.6273" fill="#FFFFFF" rx="3" ry="3" style="stroke:#000000;stroke-width:1;"/><text fill="#000000" font-family="Verdana" font-size="14" lengthAdjust="spacing" textLength="357.0205" x="643.44" y="314.6952">createContainer(config: CosmosConfig): Container</text></g><!--link AppHelpers to CosmosClientFactory--><g class="link" data-entity-1="AppHelpers" data-entity-2="CosmosClientFactory" data-source-line="39" data-uid="lnk7" id="link_AppHelpers_CosmosClientFactory"><path codeLine="39" d="M620.63,158.57 C672.51,193.51 726.9134,230.1583 766.4534,256.7883" fill="none" id="AppHelpers-to-CosmosClientFactory" style="stroke:#000000;stroke-width:1;"/><polygon fill="#000000" points="771.43,260.14,766.1996,251.7948,767.2829,257.3469,761.7307,258.4302,771.43,260.14" style="stroke:#000000;stroke-width:1;"/></g><!--link AppHelpers to CosmosConfig--><g class="link" data-entity-1="AppHelpers" data-entity-2="CosmosConfig" data-source-line="40" data-uid="lnk8" id="link_AppHelpers_CosmosConfig"><path codeLine="40" d="M512.95,158.57 C512.95,183.66 512.95,205.36 512.95,228.84" fill="none" id="AppHelpers-to-CosmosConfig" style="stroke:#000000;stroke-width:1;"/><polygon fill="#000000" points="512.95,234.84,516.95,225.84,512.95,229.84,508.95,225.84,512.95,234.84" style="stroke:#000000;stroke-width:1;"/></g><!--link AppHelpers to CustomerRepository--><g class="link" data-entity-1="AppHelpers" data-entity-2="CustomerRepository" data-source-line="41" data-uid="lnk9" id="link_AppHelpers_CustomerRepository"><path codeLine="41" d="M403.85,158.57 C374.98,177.76 348.8163,195.1478 319.9563,214.3378" fill="none" id="AppHelpers-to-CustomerRepository" style="stroke:#000000;stroke-width:1;"/><polygon fill="#000000" points="314.96,217.66,324.6692,216.0076,319.1236,214.8915,320.2396,209.3458,314.96,217.66" style="stroke:#000000;stroke-width:1;"/></g><!--link CustomerRepository to Customer--><g class="link" data-entity-1="CustomerRepository" data-entity-2="Customer" data-source-line="42" data-uid="lnk10" id="link_CustomerRepository_Customer"><path codeLine="42" d="M205.95,364.45 C205.95,384.2 205.95,399.27 205.95,417.9" fill="none" id="CustomerRepository-to-Customer" style="stroke:#000000;stroke-width:1;"/><polygon fill="#000000" points="205.95,423.9,209.95,414.9,205.95,418.9,201.95,414.9,205.95,423.9" style="stroke:#000000;stroke-width:1;"/></g><!--SRC=[hLDDJuGm4BtpA-gDZV87Y66Z6urxC-hDUAXbnCP-fLD8YFhVBM3PmgB1n1ippBptEc_cnBs21684vIf9cA28P5UZqn8iUKy8EULbJj1PhgekKbH278EaNCG9eLigNFl0mMx7_ESS-WwCHkwqRNkIZ6dbl0AmETc5pmwDMQ0EKlRTbey0cvpSMYqvmdb85Lr31UwotPVfGVL29VaWgXQYRwXD-JU64WJuXaM2HlEoBn8SNRg0yFXKHCFGA3NwzxxmQfWrgD9ehbmyq3Teuz2hfSyKOJ-nPPnVb1vvBeov0M70ui0o33L8MdZw6G7LR7lr312lLFFBk4Cy6_igZ6CZ_aNLOD48jLBKnBpGZEaAqivLt-S32_TK6d7WNYLvlX62WtBNb8tt4ImBBgUiNvfyiaAR-7OyP6HxbXLBs3-Kz6X7_uukDrauvhWo-G80]--></g></svg>